<svg width="1440" height="598" viewBox="0 0 1440 598" fill="none" xmlns="http://www.w3.org/2000/svg">
<path d="M1364.43 598.003H1363.94C1343.89 577.938 1324.23 557.4 1304.64 536.93C1239.99 469.369 1176.04 402.55 1101.15 356.037C928.475 248.791 697.504 249.544 265.257 598.003H264.709C697.34 249.171 928.532 248.434 1101.4 355.803C1176.33 402.341 1240.29 469.174 1304.96 536.75C1324.61 557.282 1344.33 577.883 1364.43 598.003ZM1381.46 598.003H1380.95C1355.37 574.538 1330.31 550.178 1305.27 525.856C1235.78 458.317 1166.52 390.996 1087.13 343.731C900.945 232.894 658.927 232.393 227.399 598.012H226.863C658.751 232.02 900.991 232.529 1087.38 343.492C1166.81 390.782 1236.08 458.115 1305.58 525.667C1330.68 550.055 1355.81 574.483 1381.46 598.003ZM1401.52 598.003H1400.98C1369.48 571.438 1338.57 543.355 1307.58 515.211C1232.86 447.332 1157.73 379.086 1073.09 330.936C872.801 216.992 619.137 215.66 191.272 598.003H190.748C618.947 215.282 872.839 216.632 1073.33 330.693C1158 378.863 1233.15 447.122 1307.89 515.015C1338.95 543.23 1369.94 571.388 1401.52 598.003ZM1424.62 598.003H1424.06C1386.38 568.702 1349.22 537.008 1311.79 505.104C1231.27 436.439 1149.52 366.727 1058.69 317.526C843.803 201.124 577.961 199.558 156.963 598.003H156.453C577.76 199.185 843.829 200.767 1058.92 317.278C1149.79 366.502 1231.55 436.223 1312.09 504.901C1349.6 536.887 1386.85 568.657 1424.62 598.003ZM1440 590.192V590.613C1399.44 560.966 1359.05 528.5 1318.14 495.62C1231.09 425.646 1141.71 353.805 1043.48 303.34C813.655 185.272 535.248 184.309 124.511 598.003H124.013C535.035 183.934 813.663 184.913 1043.7 303.088C1141.97 353.572 1231.36 425.426 1318.43 495.404C1359.24 528.214 1399.54 560.604 1439.99 590.192H1440ZM1440 570.534V570.948C1402.72 544.548 1365.13 515.951 1326.93 486.885C1232.43 414.995 1134.09 340.19 1026.94 288.228C781.989 169.425 490.887 170.128 94.0263 598.003H93.5367C490.663 169.759 781.992 169.079 1027.16 287.973C1134.34 339.951 1232.69 414.77 1327.21 486.662C1365.32 515.662 1402.81 544.179 1439.99 570.534H1440ZM1440 550.825V551.234C1406.76 528.391 1372.98 503.966 1338.52 479.06C1235.47 404.569 1126.46 325.772 1008.51 272.065C748.449 153.646 444.836 157.267 65.5805 598.003H65.1082C444.597 156.905 748.434 153.286 1008.72 271.805C1126.7 325.528 1235.73 404.337 1338.8 478.839C1373.17 503.677 1406.87 528.036 1439.99 550.825H1440ZM1440 531.07V531.473C1411.74 512.603 1382.88 492.693 1353.4 472.36C1240.53 394.523 1118.64 310.455 987.555 254.761C712.613 137.949 397.123 145.971 39.2775 598.003H38.8138C396.87 145.605 712.59 137.596 987.748 254.494C1118.87 310.205 1240.78 394.28 1353.66 472.135C1383.05 492.413 1411.83 512.255 1439.99 531.07H1440ZM1440 511.269V511.667C1417.87 497.295 1395.25 482.344 1372.16 467.082C1248.12 385.094 1110.53 294.157 963.423 236.278C674.116 122.452 347.918 136.524 15.2784 598.003H14.8234C347.648 136.169 674.081 122.097 963.605 236.007C1110.76 293.904 1248.36 384.853 1372.42 466.852C1395.42 482.053 1417.96 496.949 1439.99 511.269H1440ZM1440 491.428V491.821C1425.47 482.633 1410.68 473.239 1395.63 463.641C1259.08 376.723 1102.16 276.833 935.464 216.646C634.689 108.041 302.101 128.779 -0.0114746 588.277V587.595C302.135 128.41 634.787 107.74 935.634 216.37C1102.37 276.576 1259.32 376.48 1395.89 463.409C1410.84 472.927 1425.54 482.266 1439.99 491.428H1440ZM1440 471.55V471.93L1424.97 462.664C1274.88 370.121 1093.77 258.457 903.056 195.955C597.488 95.8145 267.178 121.956 4.56534e-05 555.097V554.382C267.253 121.601 597.589 95.5277 903.211 195.684C1093.99 258.202 1275.11 369.879 1425.22 462.437L1440 471.55ZM1440 451.638V452.025C1279.44 355.525 1076.47 236.251 865.627 174.414C558.133 84.2255 233.868 116.302 -0.0114746 519.51V518.768C233.948 115.929 558.219 83.9319 865.757 174.129C1076.56 235.952 1279.45 355.159 1439.99 451.638H1440ZM1440 431.691V432.076C1270.66 332.732 1048.86 210.558 822.712 152.264C516.822 73.4148 202.945 111.514 -0.0114746 481.065V480.282C203.06 111.145 516.949 73.1235 822.839 151.975C1048.94 210.257 1270.66 332.361 1439.99 431.691H1440ZM1440 411.72V412.098C1243.96 299.763 971.081 159.998 706.308 116.824C429.728 71.7238 162.014 132.086 -0.0114746 439.234V438.426C162.133 131.704 429.834 71.4302 706.392 116.525C971.125 159.695 1243.95 299.389 1439.99 411.72H1440ZM1440 391.719V392.095C1240.21 280.178 954.187 142.856 681.685 101.297C406.31 59.304 144.766 115.135 -0.0114746 393.82V393.007C144.91 114.755 406.42 59.015 681.742 101.006C954.228 142.551 1240.19 279.807 1439.99 391.719H1440ZM1440 371.691V372.067C1237 260.822 938.724 126.346 659.048 86.0599C550.008 70.356 443.799 68.9654 347.175 88.857C250.551 108.749 163.526 149.916 92.8224 219.322C57.5338 253.962 26.3175 295.639 4.56534e-05 345.213V344.407C26.2541 295.111 57.361 253.634 92.5085 219.136C163.267 149.674 250.379 108.471 347.072 88.5634C443.765 68.6558 550.025 70.0464 659.123 85.7617C938.759 126.041 1236.97 260.455 1439.99 371.691H1440ZM1440 351.638V352.009C1223.51 235.882 891.979 96.5451 593.568 65.6448C491.21 55.0481 392.749 57.2056 304.168 77.4386C215.588 97.6716 136.907 135.971 74.0564 197.655C46.0455 225.155 21.1853 257.31 -0.0114746 294.571V293.804C21.1047 256.786 45.8612 224.828 73.7367 197.467C136.639 135.73 215.413 97.3962 304.047 77.1473C392.682 56.8984 491.198 54.7408 593.611 65.3444C892.002 96.2424 1223.46 235.515 1439.99 351.638H1440ZM1440 331.56V331.931C1282.68 249.273 1061.28 155.967 836.093 98.7231C667.835 55.9516 497.474 33.3198 350.173 50.3164C202.873 67.313 78.6788 123.927 2.66405 239.651C1.76741 241.016 0.879406 242.388 4.56534e-05 243.766V243.083C0.768046 241.893 1.53605 240.708 2.30405 239.526C78.3879 123.699 202.715 67.0354 350.113 50.0251C497.511 33.0148 667.907 55.6625 836.217 98.4363C1061.33 155.662 1282.66 248.923 1439.99 331.56H1440ZM1440 311.466V311.832C1271.84 225.249 1026.87 128.224 782.513 73.5423C616.141 36.3172 450.063 18.7197 308.725 37.421C178.379 54.6657 69.0797 102.788 -0.0114746 194.854V194.244C69.1575 102.39 178.407 54.3539 308.65 37.1229C450.058 18.4125 616.19 36.0122 782.611 73.2532C1026.91 127.916 1271.81 224.896 1439.99 311.477L1440 311.466ZM1440 291.349V291.715C1260.67 201.176 990.132 100.63 726.382 49.3173C562.74 17.4793 401.749 4.59528 266.783 24.8146C155.969 41.4152 62.7236 80.3473 -0.0114746 149.431V148.898C62.7725 79.9718 155.972 41.108 266.694 24.5187C401.714 4.2903 562.781 17.1789 726.469 49.026C990.158 100.323 1260.63 200.826 1439.99 291.349H1440ZM1440 271.216V271.578C1249.38 177.168 951.552 73.4398 668.696 26.253C508.507 -0.470917 353.128 -9.06253 224.77 12.445C133.537 27.7324 55.9642 58.2298 -0.0114746 108.223V107.754C55.9844 57.8679 133.52 27.4138 224.672 12.1491C353.094 -9.36979 508.53 -0.778181 668.768 25.9549C951.572 73.1326 1249.33 176.815 1439.99 271.216H1440ZM304.229 598.003C734.907 266.598 955.67 264.392 1115.7 367.788C1186.71 413.673 1245.75 480.337 1305.88 548.23C1320.59 564.845 1335.37 581.527 1350.4 598.003H1349.91C1334.94 581.584 1320.21 564.956 1305.56 548.401C1245.45 480.524 1186.42 413.875 1115.46 368.02C955.633 264.747 735.091 266.969 304.816 598.003H304.229Z" fill="#B9C2D6"/>
</svg>
